# xmcd
#
# Track frame offsets:
#  182
#  13362
#  25607
#  38237
#  49315
#  60272
#  77392
#  87702
#  100337
#  115580
#  131145
#  142350
#  155522
#  165937
#  177662
#  190832
#
# Disc length: 2716 seconds
#
# Revision: 3
# Processed by: cddbd v1.5.1PL2 Copyright (c) Steve Scherf et al.
# Submitted via: Collectorz.com_Music_Collector 6.9
#
DISCID=d70a9a10
DTITLE=Gerhard Wendland - Tanze Mit Mir In Den Morgen
DYEAR=1900
DGENRE=General Folk
TTITLE0=Das Machen Nur Die Beine Von Dolores
TTITLE1=Liebe Ist Ja Nur Ein Märchen
TTITLE2=Domino
TTITLE3=Immer Wieder Lieb Ich Dich
TTITLE4=Bei Uns In Laramie
TTITLE5=Vagabundenlied
TTITLE6=Die Welt War Nie So Schön Für Mich
TTITLE7=Arrivederci Roma
TTITLE8=Diesmal Muß Es Liebe Sein
TTITLE9=Schau In Meine Augen
TTITLE10=Jambalaya
TTITLE11=Mister Blue
TTITLE12=Gestern Abend Ging Leis Das Telefon
TTITLE13=Mary-Rose
TTITLE14=Schau Mir Nochmal In Die Augen
TTITLE15=Tanze Mit Mir In Den Morgen
EXTD=
EXTT0=
EXTT1=
EXTT2=
EXTT3=
EXTT4=
EXTT5=
EXTT6=
EXTT7=
EXTT8=
EXTT9=
EXTT10=
EXTT11=
EXTT12=
EXTT13=
EXTT14=
EXTT15=
PLAYORDER=
